 <svg  version="1.0" xmlns="http://www.w3.org/2000/svg"  width="392.000000pt" height="256.000000pt" viewBox="0 0 392.000000 256.000000"  preserveAspectRatio="xMidYMid meet">  <g transform="translate(0.000000,256.000000) scale(0.050000,-0.050000)" fill="#0800f0" stroke="none"> <path d="M2760 5102 c183 -20 160 -110 -44 -169 -130 -38 -169 -96 -145 -215 25 -121 273 -134 364 -20 14 18 43 69 65 115 73 154 181 125 219 -60 26 -122 81 -193 151 -193 223 0 234 299 15 391 -151 63 -109 121 83 113 117 -4 152 1 174 28 25 30 21 32 -42 17 -39 -9 -126 -14 -194 -11 -199 7 -222 -81 -45 -175 176 -95 201 -274 43 -316 -62 -16 -120 40 -136 131 -45 253 -192 279 -327 57 -94 -155 -209 -196 -294 -104 -85 92 -48 166 105 207 197 52 210 211 18 214 l-120 3 110 -13z"/> <path d="M3013 5104 c-25 -39 26 -87 85 -80 52 6 92 96 43 96 -11 0 -21 -13 -21 -30 0 -42 -76 -38 -84 5 -5 27 -11 29 -23 9z"/> <path d="M5365 5080 c-54 -86 -19 -200 97 -310 203 -195 57 -321 -168 -145 -135 106 -300 108 -326 4 -41 -164 41 -253 248 -269 220 -16 184 -170 -49 -209 -263 -44 -251 -411 13 -411 162 0 255 69 354 260 64 126 126 151 201 81 39 -37 57 -83 93 -243 53 -237 392 -199 392 45 0 135 -62 221 -223 306 -168 90 -135 133 97 129 214 -4 265 12 308 101 111 232 -186 418 -387 243 -164 -142 -241 -121 -263 72 -26 231 -36 266 -92 326 -71 77 -252 89 -295 20z m222 -22 c77 -60 93 -100 114 -290 20 -173 33 -202 114 -245 52 -28 132 5 241 100 143 125 352 29 314 -145 -22 -99 -87 -126 -269 -110 -194 16 -261 -8 -261 -91 0 -52 117 -157 176 -157 108 0 190 -246 113 -338 -102 -120 -203 -62 -268 153 -82 277 -266 335 -363 114 -90 -202 -235 -296 -371 -239 -184 77 -124 259 99 301 251 47 264 303 15 293 -173 -7 -303 131 -210 225 49 48 115 37 211 -36 121 -91 165 -113 236 -113 157 0 152 237 -8 370 -161 133 -46 337 117 208z"/> <path d="M5575 4438 c-80 -46 -30 -178 67 -178 105 0 133 161 32 188 -56 15 -57 15 -99 -10z m101 -83 c8 -42 -50 -69 -80 -39 -30 30 -3 88 39 80 19 -3 38 -22 41 -41z"/> <path d="M6916 5080 c5 -16 19 -68 30 -115 13 -55 32 -85 52 -86 18 0 49 -13 70 -29 31 -23 253 -65 293 -55 6 1 12 -27 13 -63 1 -36 -8 -66 -21 -66 -13 -1 -77 -11 -142 -21 -66 -11 -129 -18 -140 -16 -12 2 -15 1 -8 -3 20 -12 -69 -144 -98 -145 -28 -1 -34 -33 -9 -49 18 -10 84 57 84 85 0 51 103 99 233 109 75 6 140 12 144 13 3 0 2 26 -2 56 -5 30 -5 44 0 30 9 -29 38 -33 53 -8 35 56 -84 115 -260 129 -180 14 -297 157 -204 250 19 19 19 24 0 24 -13 0 -24 -9 -24 -20 0 -23 -53 -27 -65 -5 -5 8 -4 2 1 -15z"/> <path d="M7487 5025 c123 -86 161 -100 182 -66 13 21 -88 81 -136 81 -48 0 -82 55 -39 65 20 4 -1 7 -46 7 l-83 -1 122 -86z"/> <path d="M7782 5068 c-3 -86 -71 -168 -139 -168 -57 0 -163 41 -163 63 0 13 -146 6 -283 -13 -74 -10 -161 45 -102 65 27 9 35 85 9 85 -32 0 -64 -49 -64 -100 0 -65 87 -101 231 -97 l99 3 -100 14 -100 14 117 3 c85 2 114 -4 108 -22 -5 -14 10 -34 32 -45 55 -27 129 -155 97 -165 -13 -5 -24 -21 -24 -37 0 -16 -22 -39 -50 -52 -59 -27 -67 -64 -10 -46 23 7 40 4 40 -9 0 -11 -16 -21 -37 -21 -20 0 -43 -7 -51 -15 -18 -18 -27 -19 -133 -22 -45 -2 -77 -10 -72 -18 17 -28 208 -13 260 21 143 94 213 -77 114 -277 -69 -137 -76 -210 -26 -254 91 -81 245 -31 275 89 22 85 -20 80 -59 -6 -24 -56 -44 -77 -65 -69 -16 6 -51 11 -78 11 -63 0 -67 114 -8 230 22 43 40 104 40 134 0 31 10 56 21 56 13 0 16 -17 9 -40 -7 -22 -4 -40 7 -40 33 0 48 79 22 111 -19 23 -18 29 9 29 21 0 32 -17 32 -53 0 -69 42 -207 63 -207 21 0 21 6 -10 140 -25 105 -9 220 29 220 8 0 14 31 14 69 0 83 -47 77 -66 -9 -27 -121 -217 -93 -201 29 5 39 1 71 -10 71 -10 0 -19 7 -19 17 0 23 208 8 217 -17 10 -31 43 -24 43 10 0 17 11 30 25 30 17 1 15 7 -5 22 -23 16 -24 24 -5 31 14 6 24 25 23 44 -1 20 -5 24 -11 8 -6 -14 -27 -25 -47 -25 -19 0 -41 -13 -47 -30 -7 -16 -26 -30 -44 -30 -19 0 -26 9 -17 23 14 23 8 22 -122 -18 -36 -11 -37 -9 -9 19 17 17 69 38 115 45 53 9 98 32 121 62 21 26 43 42 50 35 19 -19 13 16 -17 94 l-27 70 -1 -62z m-32 -548 c-7 -12 -33 -19 -57 -16 -32 4 -41 -3 -37 -29 9 -57 -30 -40 -41 17 -9 48 -6 51 47 41 31 -7 62 -2 69 9 7 11 18 16 23 11 6 -6 4 -20 -4 -33z"/> <path d="M7182 5035 c-2 -46 6 -55 49 -55 29 0 46 9 39 20 -7 11 -25 20 -40 20 -15 0 -31 16 -36 35 -6 22 -10 14 -12 -20z"/> <path d="M7315 5043 c19 -20 42 -33 50 -29 8 5 15 -1 15 -13 0 -11 15 -21 33 -21 28 0 26 9 -13 50 -26 28 -63 50 -83 50 -35 0 -35 -2 -2 -37z"/> <path d="M1355 4944 c-19 -4 -35 -14 -35 -23 0 -28 99 -44 136 -22 30 18 29 20 -9 20 -24 1 -47 8 -50 17 -4 8 -23 12 -42 8z"/> <path d="M1512 4937 c6 -10 40 -16 75 -13 184 13 339 -259 227 -401 -24 -30 12 -62 71 -63 28 0 35 18 35 90 0 54 -9 90 -23 90 -22 0 -16 78 12 170 10 31 7 30 -11 -5 -28 -52 -63 -60 -54 -13 11 60 -130 153 -242 158 -56 3 -96 -3 -90 -13z m381 -451 c-30 -29 -44 12 -25 74 l20 70 8 -67 c4 -37 2 -71 -3 -77z"/> <path d="M1282 4853 c7 -60 -4 -91 -30 -81 -34 13 -56 -75 -59 -237 -3 -114 -68 -212 -103 -155 -7 11 1 20 18 20 43 0 67 60 52 130 l-14 60 -17 -60 c-9 -33 -15 -72 -12 -87 3 -15 -6 -23 -21 -18 -14 6 -24 20 -21 32 2 12 -9 16 -25 10 -17 -6 -43 -1 -58 11 -40 33 -100 6 -69 -31 13 -16 35 -24 50 -19 15 6 27 2 27 -9 0 -10 -11 -19 -25 -20 -14 0 5 -14 42 -30 160 -69 230 -14 235 184 1 71 13 140 25 152 13 13 23 34 23 47 0 13 14 34 30 48 41 34 38 53 -10 66 -25 6 -40 1 -38 -13z"/> <path d="M1490 4846 c-140 -34 -270 -526 -139 -526 30 0 38 24 16 47 -65 64 9 389 93 411 96 25 188 12 233 -33 53 -53 45 -93 -15 -74 -21 6 -38 2 -38 -10 0 -11 27 -21 60 -21 73 0 77 -31 10 -84 -27 -21 -50 -51 -50 -67 0 -17 -12 -23 -30 -16 -22 8 -27 2 -18 -21 17 -44 25 -41 93 30 172 181 30 423 -215 364z"/> <path d="M448 4700 c-23 -9 -48 -32 -55 -50 -9 -22 -26 -29 -53 -20 -30 9 -40 4 -41 -24 0 -42 -65 -126 -97 -126 -11 0 -16 -14 -9 -30 6 -17 0 -44 -13 -60 -20 -24 -19 -30 5 -30 39 0 82 52 86 106 1 23 13 45 26 50 13 4 23 25 23 47 0 24 9 34 22 26 12 -8 30 -3 38 12 38 60 233 48 374 -23 92 -47 135 -60 141 -43 5 14 21 25 37 25 42 0 34 34 -11 46 -25 6 -41 -1 -45 -22 -5 -27 -10 -27 -36 -3 -33 31 -56 39 -145 54 -30 5 -55 22 -55 37 0 16 -20 28 -48 28 -27 0 -61 4 -75 9 -15 5 -46 1 -69 -9z"/> <path d="M1403 4669 c-27 -61 -31 -242 -5 -258 14 -9 42 275 31 304 -2 3 -13 -18 -26 -46z"/> <path d="M7645 4707 c-35 -14 -31 -60 5 -74 48 -19 87 6 75 48 -10 39 -31 45 -80 26z"/> <path d="M415 4558 c-188 -109 -52 -296 215 -295 33 0 99 -9 147 -20 49 -11 100 -15 115 -10 17 7 24 -2 19 -26 -3 -20 6 -49 21 -63 31 -29 35 -18 29 80 l-4 54 81 -32 c73 -28 87 -28 158 0 59 24 84 26 101 9 17 -17 23 -12 23 20 0 58 -35 76 -76 39 -90 -81 -222 -48 -381 96 -152 137 -353 204 -448 148z m216 -95 c45 -12 102 -44 127 -71 29 -31 60 -44 88 -38 32 7 37 4 17 -10 -15 -10 -69 -20 -120 -21 -51 -1 -129 -6 -173 -12 -52 -7 -66 -5 -41 6 36 15 35 18 -14 30 -40 10 -53 25 -50 56 6 52 -39 73 -49 23 -6 -27 -11 -23 -19 16 -12 59 72 67 234 21z"/> <path d="M7167 4560 c-24 -9 -50 -29 -59 -44 -78 -123 61 -222 191 -137 48 31 13 42 -53 17 -60 -22 -154 23 -119 57 6 7 26 -3 43 -21 40 -39 49 -39 100 1 39 31 39 31 -10 21 -27 -7 -72 1 -100 17 -38 21 -42 28 -15 28 19 1 35 10 35 21 0 11 46 20 101 20 63 0 97 8 89 20 -15 24 -143 24 -203 0z"/> <path d="M1535 4467 c25 -10 36 -67 12 -67 -7 0 -24 15 -37 34 -26 35 -90 -50 -90 -121 0 -15 -13 -39 -30 -53 -16 -14 -29 -35 -28 -47 1 -15 5 -14 11 2 6 14 17 25 25 25 17 0 12 -148 -7 -178 -8 -13 5 -23 33 -23 25 -1 64 -10 86 -21 30 -14 18 -16 -47 -10 -87 9 -87 9 -76 -49 7 -32 2 -63 -10 -71 -15 -9 -19 30 -14 129 5 79 1 143 -7 143 -9 0 -16 -13 -16 -30 0 -40 -34 -38 -57 4 -16 28 -24 30 -50 8 -19 -16 -49 -20 -77 -10 -44 14 -43 16 21 42 37 16 62 33 56 40 -19 18 -147 -51 -161 -87 -12 -30 -16 -29 -42 5 -35 46 -77 5 -61 -60 31 -130 -119 -232 -343 -232 -58 0 -106 -9 -106 -20 0 -11 -15 -20 -33 -20 -105 0 -141 -173 -49 -239 104 -74 211 -38 364 121 78 81 122 93 205 56 117 -54 118 -203 2 -411 -132 -237 9 -453 224 -340 92 48 178 174 144 208 -12 12 -16 37 -11 58 8 30 10 29 12 -8 1 -25 11 -45 22 -45 26 0 26 129 0 209 -90 273 -96 301 -77 337 33 61 -28 112 -121 100 -122 -17 -202 139 -111 215 100 83 259 -12 225 -135 -15 -55 -13 -75 7 -88 38 -24 50 -22 84 12 69 69 264 22 452 -109 209 -145 424 70 271 270 -89 117 -261 136 -493 54 -144 -51 -200 -7 -193 155 2 69 11 109 21 94 12 -18 22 -16 40 8 14 17 45 42 70 56 53 28 30 103 -31 100 -21 -1 -24 -5 -9 -11z m507 -452 c87 -87 76 -213 -19 -217 -42 -2 -44 -5 -13 -12 72 -18 81 -46 15 -46 -34 0 -76 14 -93 31 -18 18 -43 25 -57 16 -16 -9 -15 -2 4 20 25 32 23 35 -20 31 -95 -8 -116 0 -105 42 7 28 1 40 -22 40 -17 0 -32 -8 -32 -18 0 -10 -19 -13 -42 -7 l-43 11 43 23 c24 13 37 29 29 37 -20 20 -87 17 -87 -4 0 -10 -40 -21 -90 -25 -57 -5 -90 1 -90 15 0 21 201 53 320 52 46 0 47 1 13 26 -34 25 -31 28 30 35 155 18 200 9 259 -50z m-1006 -150 c-7 -60 -15 -56 169 -62 106 -3 117 -23 49 -91 -41 -41 -43 -49 -15 -68 26 -18 24 -22 -14 -23 -26 0 -45 11 -45 27 0 28 -71 84 -160 125 -27 13 -39 24 -26 25 14 1 20 26 15 62 -4 33 2 60 13 60 12 0 18 -25 14 -55z m-435 -100 c0 -33 2 -33 27 0 34 45 172 49 172 5 0 -16 -16 -30 -35 -31 -45 0 -105 -46 -105 -79 0 -20 6 -20 30 0 17 14 36 21 42 14 27 -27 -64 -50 -98 -24 -28 20 -30 29 -10 38 14 7 1 8 -29 2 -85 -16 -151 56 -77 85 75 30 82 29 83 -10z m19 -137 c11 -11 -19 -19 -76 -20 -96 -3 -137 23 -102 64 20 24 139 -5 178 -44z m685 -57 c5 -29 1 -45 -10 -38 -17 11 -10 -27 19 -106 5 -13 -1 -29 -13 -36 -11 -7 -21 -33 -21 -57 1 -35 5 -38 19 -15 10 16 13 38 7 48 -7 11 -2 13 11 5 28 -18 31 -185 3 -202 -11 -7 -20 -3 -20 9 0 11 -9 21 -20 21 -11 0 -20 -13 -20 -30 0 -16 -16 -31 -35 -32 -33 -3 -33 -3 0 -12 20 -5 30 -17 24 -28 -15 -25 -189 -23 -189 2 0 11 14 20 30 20 41 0 38 10 -20 68 -27 28 -50 66 -50 86 0 27 11 21 42 -24 34 -49 39 -52 30 -15 -31 118 -31 134 -3 75 29 -59 29 -59 19 40 -9 78 -6 94 12 70 19 -25 22 -21 14 20 -17 95 12 149 87 162 38 7 70 14 72 15 1 2 7 -19 12 -46z"/> <path d="M7422 4425 c-83 -95 -185 -142 -274 -125 -43 9 -71 16 -63 18 21 3 -61 82 -85 82 -31 0 -24 -34 10 -47 17 -7 30 -25 30 -41 0 -38 115 -61 213 -43 74 14 89 24 202 136 36 36 65 55 65 43 0 -28 -83 -119 -121 -132 -16 -6 -22 -18 -14 -26 8 -9 27 -5 44 9 16 13 40 18 53 10 13 -9 19 -7 13 3 -6 10 1 36 17 57 15 21 28 30 28 19 0 -11 -11 -31 -24 -44 -13 -13 -17 -24 -9 -24 9 0 -3 -24 -26 -53 -22 -29 -41 -65 -41 -80 0 -15 -10 -27 -22 -27 -12 0 -17 -13 -11 -30 7 -16 3 -30 -8 -30 -31 0 -22 -84 14 -124 40 -43 21 -73 -23 -36 -16 14 -30 16 -30 5 0 -41 58 -71 88 -46 22 18 33 17 45 -3 10 -14 35 -28 57 -31 224 -25 273 -26 260 -5 -8 13 -27 18 -42 12 -15 -6 -28 -3 -28 7 0 10 -31 13 -68 7 -83 -13 -178 25 -204 82 -11 23 -31 39 -46 36 -16 -3 -22 5 -16 20 7 14 33 78 60 141 26 63 53 109 60 103 23 -24 37 129 15 170 -30 56 -61 52 -119 -13z"/> <path d="M1738 4424 c-33 -39 -43 -104 -15 -104 10 0 17 14 17 30 0 19 19 30 51 30 39 0 50 9 45 35 -9 48 -60 53 -98 9z"/> <path d="M250 4321 c21 -68 123 -170 138 -138 9 21 15 21 24 2 7 -15 32 -21 65 -13 40 8 46 6 24 -9 -46 -32 -24 -39 149 -45 90 -4 171 -17 185 -31 30 -29 33 -54 5 -37 -11 7 -20 -1 -20 -18 0 -19 -27 -35 -70 -43 -39 -8 -75 -22 -81 -31 -6 -10 -28 -18 -49 -18 -109 0 -236 -44 -251 -86 l-14 -44 -9 47 c-9 47 -9 47 -40 -10 -42 -80 -41 -335 2 -321 12 4 38 -14 58 -39 20 -26 51 -47 68 -47 18 0 26 -11 19 -28 -10 -28 27 -53 74 -51 12 1 5 10 -17 19 -35 15 -34 17 15 19 30 0 55 -8 55 -19 0 -11 14 -20 30 -20 17 0 30 9 30 20 0 11 25 20 55 20 30 0 69 10 85 22 22 16 9 18 -50 9 -74 -11 -77 -10 -41 19 21 16 56 30 77 30 25 0 34 10 27 29 -8 20 1 26 33 19 69 -13 151 11 160 48 5 19 10 5 12 -30 1 -35 -7 -69 -18 -76 -12 -7 -14 2 -6 24 8 22 -12 10 -51 -29 -39 -38 -70 -93 -77 -133 -6 -39 -28 -88 -49 -111 -35 -37 -36 -43 -7 -54 22 -8 29 -27 22 -55 -16 -64 8 -133 43 -127 17 3 35 -7 40 -21 5 -15 -3 -25 -18 -23 -50 7 -77 -1 -77 -22 0 -12 9 -16 20 -9 10 6 38 2 61 -10 31 -17 50 -17 75 3 19 14 27 18 19 8 -29 -34 57 -70 169 -70 95 -1 118 6 136 39 12 22 32 40 46 40 16 -1 15 -6 -4 -18 -18 -12 -8 -17 34 -15 79 4 93 20 64 74 -16 29 -17 39 -2 30 13 -8 22 4 22 30 0 32 9 40 33 31 17 -7 45 -2 61 11 20 17 33 18 43 3 29 -47 20 266 -10 358 -35 106 -57 129 -37 38 7 -33 3 -64 -9 -71 -13 -9 -21 18 -21 74 0 49 -7 95 -15 103 -8 9 -15 26 -16 39 0 13 -13 20 -28 17 -22 -5 -23 0 -5 22 13 15 18 34 10 41 -7 7 5 13 26 13 32 1 33 4 8 20 -22 14 -9 19 50 19 59 0 72 -5 50 -19 -25 -16 -24 -19 7 -20 25 0 33 10 26 30 -15 39 -7 38 68 -8 43 -26 54 -41 36 -50 -15 -7 -7 -9 18 -4 25 4 45 0 45 -9 0 -21 57 -37 205 -59 l105 -15 -100 -5 c-55 -3 -109 -2 -120 0 -82 21 -110 22 -110 2 0 -12 26 -22 58 -22 32 0 64 -11 70 -25 10 -20 14 -20 24 0 6 14 43 25 82 25 39 0 92 17 121 40 28 22 63 40 78 40 15 0 27 10 27 21 0 12 14 35 30 52 17 17 25 38 19 49 -6 10 -4 18 6 18 61 0 18 208 -61 295 -22 25 -34 51 -26 59 8 8 23 2 35 -15 17 -25 19 -25 12 1 -5 18 -42 35 -92 41 -46 7 -94 22 -107 35 -41 41 -430 23 -404 -19 6 -9 2 -17 -9 -17 -11 0 -36 -6 -55 -13 -35 -14 -31 -8 87 118 95 103 31 121 -87 25 -153 -126 -95 -210 102 -148 337 105 595 -35 563 -305 -26 -223 -199 -261 -482 -107 -157 86 -314 123 -279 67 10 -16 4 -20 -17 -12 -56 22 -89 -109 -51 -202 34 -83 35 -86 60 -216 59 -313 -250 -577 -478 -408 -129 95 -134 234 -14 432 156 260 39 395 -175 201 -236 -213 -508 -145 -468 117 17 112 103 169 291 192 72 9 152 21 179 27 194 44 104 285 -99 266 -120 -12 -356 43 -369 84 -6 18 -29 44 -53 58 -38 24 -40 23 -28 -15z m690 -698 c0 -25 -78 -91 -92 -78 -6 6 5 30 25 52 40 43 67 53 67 26z m639 -338 c0 -41 -19 -106 -41 -145 -31 -54 -37 -59 -28 -20 7 28 18 93 24 145 13 113 46 127 45 20z"/> <path d="M1835 4285 c47 -4 85 -16 85 -26 0 -11 16 -19 35 -18 32 0 31 3 -4 30 -22 16 -74 27 -120 26 l-81 -4 85 -8z"/> <path d="M4160 4114 c80 -42 120 -54 120 -37 0 21 -91 63 -136 63 -24 0 -19 -8 16 -26z"/> <path d="M3740 4039 c0 -36 8 -56 20 -49 11 7 20 34 20 61 0 27 -9 49 -20 49 -11 0 -20 -28 -20 -61z"/> <path d="M3891 4081 c-17 -27 70 -81 128 -79 43 2 41 5 -16 18 -37 9 -77 27 -90 41 -18 19 -15 22 13 12 21 -7 31 -5 24 7 -16 25 -44 26 -59 1z"/> <path d="M1155 4026 c-48 -12 -46 -100 2 -115 52 -17 103 7 103 47 0 34 -38 84 -59 80 -6 -2 -27 -7 -46 -12z"/> <path d="M520 3980 c-42 -14 -37 -16 35 -18 47 -1 85 7 85 18 0 23 -48 23 -120 0z"/> <path d="M3687 3864 l-3 -134 17 110 c8 60 10 120 2 133 -7 13 -14 -36 -16 -109z"/> <path d="M3815 3882 c-7 -27 -1 -36 22 -33 41 6 56 71 17 71 -16 0 -34 -17 -39 -38z"/> <path d="M3180 3822 c0 -10 37 -13 82 -7 58 8 87 3 100 -17 14 -22 17 -21 18 7 0 29 -18 35 -100 35 -55 0 -100 -8 -100 -18z"/> <path d="M3792 3755 c-28 -145 -27 -236 2 -211 19 15 23 42 15 82 -7 32 -5 54 4 48 10 -6 14 25 10 68 -9 95 -15 97 -31 13z"/> <path d="M3051 3761 c-14 -23 -5 -282 9 -268 9 9 15 287 6 287 -2 0 -9 -8 -15 -19z"/> <path d="M3225 3699 c-25 -10 -44 -29 -43 -43 1 -20 3 -21 11 -1 6 14 28 25 50 25 22 0 34 -9 27 -20 -16 -25 29 -18 62 10 48 41 -28 61 -107 29z"/> <path d="M3600 3661 l-50 -15 58 -24 c60 -24 100 -12 54 17 -22 13 -22 18 1 27 40 16 -5 12 -63 -5z"/> <path d="M3362 3650 c-2 -37 28 -64 88 -78 57 -14 58 -13 20 16 -22 17 -50 31 -63 31 -13 1 -28 12 -34 26 -5 14 -10 16 -11 5z"/> <path d="M4075 3609 c27 -19 62 -26 87 -18 55 17 40 28 -54 40 -76 10 -77 9 -33 -22z"/> <path d="M3339 3556 c-1 -14 -5 -51 -9 -81 -4 -30 2 -60 13 -67 13 -8 18 10 14 45 -3 31 1 68 9 81 8 13 6 29 -6 36 -11 7 -21 1 -21 -14z"/> <path d="M3203 3426 c-3 -118 -3 -119 -62 -110 -78 11 -94 -28 -27 -63 66 -33 169 -33 180 0 6 16 -8 20 -38 14 -38 -9 -41 -6 -16 13 23 17 24 26 5 33 -29 12 -34 80 -6 90 10 4 6 23 -8 43 -25 33 -27 31 -28 -20z"/> <path d="M4082 3462 c-15 -10 -21 -27 -14 -39 7 -12 -12 -35 -42 -53 l-56 -32 60 12 c72 15 112 50 74 64 -20 8 -20 16 -2 38 26 32 20 35 -20 10z"/> <path d="M3890 3399 c10 -29 5 -40 -14 -35 -27 6 -36 -5 -36 -47 0 -13 17 -8 40 13 42 38 55 110 19 110 -13 0 -16 -17 -9 -41z"/> <path d="M7200 3405 c-37 -14 -59 -46 -60 -85 0 -20 15 -13 45 22 25 28 59 57 75 63 27 11 27 12 0 12 -16 0 -43 -5 -60 -12z"/> <path d="M7412 3365 c17 -67 28 -83 28 -38 0 18 8 33 18 33 10 0 23 14 29 30 9 22 -2 30 -38 30 -44 0 -48 -6 -37 -55z"/> <path d="M2965 3385 c-47 -4 -85 -16 -85 -26 0 -11 -19 -19 -41 -19 -23 0 -36 -9 -29 -20 8 -13 25 -13 50 0 52 28 186 26 169 -2 -9 -15 0 -15 30 1 35 19 39 29 20 52 -13 16 -25 27 -26 26 -2 -2 -41 -7 -88 -12z"/> <path d="M3509 3351 c-8 -31 -23 -44 -41 -38 -33 13 -38 -47 -8 -93 16 -24 19 -21 20 16 0 26 9 41 20 34 11 -7 20 10 20 39 0 47 6 50 75 42 74 -9 74 -9 25 19 -72 41 -98 37 -111 -19z"/> <path d="M3680 3375 c0 -14 22 -26 49 -28 33 -2 45 6 37 25 -13 35 -86 37 -86 3z"/> <path d="M3380 3275 c1 -62 6 -77 20 -55 26 39 26 140 0 140 -11 0 -20 -38 -20 -85z"/> <path d="M4091 3346 c-35 -10 -91 -53 -91 -71 0 -4 43 -9 95 -11 88 -4 92 -2 56 26 -53 41 -31 54 44 26 52 -20 75 -18 129 9 l66 32 -76 2 c-43 0 -71 -7 -65 -18 7 -11 -13 -11 -53 0 -36 11 -66 18 -66 17 0 -2 -17 -7 -39 -12z"/> <path d="M4409 3329 c-37 -30 -37 -31 15 -20 39 8 53 4 49 -14 -4 -14 -3 -18 2 -11 4 8 30 0 57 -17 55 -36 75 -29 56 20 -7 18 -34 33 -60 33 -26 0 -48 9 -48 20 0 29 -27 25 -71 -11z"/> <path d="M6656 3346 c32 -12 -7 -66 -48 -66 -30 0 -37 -24 -14 -47 13 -13 126 82 126 106 0 7 -20 13 -45 15 -25 1 -33 -3 -19 -8z"/> <path d="M6920 3341 c0 -11 12 -15 27 -9 15 6 33 -4 40 -22 7 -18 23 -26 35 -19 15 10 18 0 9 -28 -8 -26 -5 -43 8 -43 34 0 24 83 -14 112 -41 31 -105 36 -105 9z"/> <path d="M7253 3330 c-7 -16 -3 -30 8 -30 10 0 19 -22 19 -50 0 -31 -11 -50 -30 -50 -22 0 -30 -22 -30 -80 0 -77 26 -107 47 -55 8 20 10 20 11 0 4 -53 62 -25 63 30 l2 55 19 -50 c27 -66 -26 -107 -117 -90 -41 7 -65 4 -65 -10 0 -12 9 -17 20 -10 11 7 20 -2 20 -19 0 -17 -13 -31 -30 -31 -16 0 -30 9 -30 20 0 11 -26 20 -58 20 -78 0 -122 18 -122 51 0 15 -11 33 -23 41 -16 10 -20 4 -11 -19 14 -36 -1 -42 -42 -16 -22 14 -21 23 5 49 17 17 31 43 31 58 -1 19 -6 18 -22 -4 -16 -23 -18 -17 -9 26 13 60 -47 133 -109 132 -20 -1 -17 -7 10 -20 32 -15 27 -17 -25 -9 -49 8 -69 1 -85 -28 -29 -55 -25 -81 12 -81 25 0 28 6 11 27 -26 31 -11 53 35 53 28 -1 28 -3 2 -20 -25 -17 -23 -20 10 -17 90 7 110 -3 110 -55 0 -54 -29 -59 -125 -18 -28 11 -35 4 -35 -38 0 -33 11 -52 30 -52 17 0 30 -8 30 -19 0 -10 30 -14 67 -8 43 7 74 2 83 -13 11 -18 2 -21 -32 -10 -39 11 -36 5 17 -33 71 -51 99 -116 74 -172 -8 -19 -15 -40 -14 -46 1 -6 -13 -12 -31 -13 -263 -22 -407 -184 -288 -322 87 -100 215 -71 304 69 33 52 60 87 60 77 0 -10 11 -7 24 6 45 45 146 28 208 -35 89 -90 98 -105 102 -187 16 -267 366 -283 366 -17 0 76 -82 183 -141 183 -35 0 -119 103 -119 146 0 105 92 130 315 83 58 -12 65 -9 65 30 0 41 -7 43 -85 32 -72 -11 -79 -9 -46 11 51 32 4 54 -115 57 -46 0 -71 9 -64 21 7 11 -2 20 -20 20 -78 0 -8 -51 82 -60 69 -8 86 -15 58 -24 -33 -11 -99 -11 -197 2 -10 1 -13 14 -7 28 5 15 -16 44 -48 65 -74 50 -86 84 -35 100 33 10 38 23 26 66 -8 29 -17 92 -21 140 -7 102 -27 137 -29 51 -1 -32 -10 -76 -20 -98 -13 -29 -15 -16 -9 45 4 47 -1 85 -11 85 -33 0 -20 37 16 46 28 7 26 10 -8 12 -23 1 -48 -11 -54 -28z m130 -455 c27 -42 19 -77 -28 -116 -69 -58 -130 -49 -175 26 l-39 64 54 43 c57 46 154 37 188 -17z m-208 -150 c26 -20 27 -25 4 -26 -70 -1 39 -37 127 -42 69 -3 95 -13 96 -36 2 -17 10 -4 18 29 14 52 15 47 15 -35 -1 -77 -8 -95 -37 -95 -19 0 -39 -11 -44 -25 -4 -14 -5 -5 -1 20 6 34 -2 45 -33 45 -23 0 -40 13 -40 32 0 24 -13 30 -48 23 -35 -6 -45 -1 -38 18 7 20 -9 27 -61 27 -73 0 -112 -28 -68 -48 14 -6 5 -7 -20 0 -26 6 -45 1 -45 -11 0 -12 -22 -30 -48 -40 -27 -10 -54 -37 -62 -60 -10 -32 -30 -41 -90 -41 -57 0 -79 -9 -85 -35 -4 -19 -7 8 -7 60 l2 95 90 3 90 3 -90 14 c-49 8 -74 15 -55 17 19 2 35 12 35 23 0 11 32 20 71 20 40 0 84 11 100 25 15 14 41 36 58 50 17 15 24 40 17 60 -12 31 -9 32 20 8 19 -16 34 -40 34 -55 0 -16 10 -28 22 -28 13 0 18 19 11 47 -7 26 -6 54 2 62 8 8 18 -6 21 -32 4 -26 21 -58 39 -72z m314 -245 c28 -10 51 -33 51 -50 0 -36 33 -40 45 -5 5 15 18 7 33 -21 28 -52 7 -93 -58 -114 -51 -16 -64 -63 -28 -99 41 -41 11 -40 -34 1 -33 29 -33 37 -6 79 28 43 28 45 -7 36 -47 -12 -100 61 -100 138 0 59 22 67 104 35z"/> <path d="M7233 2851 c-17 -46 7 -94 45 -87 19 4 32 26 32 56 0 56 -58 80 -77 31z"/> <path d="M3737 3294 c15 -18 23 -56 18 -84 -12 -62 12 -65 39 -5 18 38 13 51 -32 84 -40 30 -46 31 -25 5z"/> <path d="M7101 3295 c-3 -19 -8 -44 -11 -55 -3 -11 -7 -36 -9 -55 -3 -22 -8 -26 -14 -10 -20 49 -91 30 -75 -20 41 -131 115 -172 148 -84 25 65 26 115 1 100 -10 -7 -22 27 -26 74 -5 47 -11 69 -14 50z"/> <path d="M3588 3277 c-8 -13 1 -34 20 -48 22 -16 27 -30 13 -38 -11 -7 -21 -4 -21 8 0 11 -11 21 -24 21 -17 0 -14 -10 6 -31 41 -41 144 -7 125 42 -7 17 -24 27 -39 21 -15 -6 -32 -2 -38 7 -6 10 5 22 25 27 27 7 25 10 -9 12 -24 1 -50 -8 -58 -21z"/> <path d="M3880 3241 c0 -54 7 -60 90 -72 49 -7 85 -21 79 -31 -6 -10 12 -18 41 -18 30 0 47 9 40 20 -7 11 -3 20 9 20 11 0 21 -9 21 -20 0 -11 10 -20 21 -20 12 0 16 9 9 20 -8 13 37 20 120 20 83 0 128 -7 120 -20 -7 -11 2 -20 19 -20 17 0 32 -16 33 -35 1 -19 5 -64 8 -99 4 -50 -4 -68 -35 -78 -29 -9 -33 -17 -15 -28 15 -9 -7 -18 -56 -23 -44 -4 -77 -2 -72 6 4 7 -12 14 -37 15 -118 4 -135 11 -124 44 9 30 -1 33 -70 24 -50 -7 -81 -3 -81 10 0 12 -45 20 -110 18 -134 -3 -148 -34 -15 -34 64 0 127 -17 192 -51 53 -29 110 -47 126 -41 16 7 24 3 17 -8 -52 -84 213 -62 293 24 61 65 84 163 27 116 -17 -14 -30 -16 -30 -5 0 11 14 31 30 45 49 41 34 93 -45 159 -75 62 -119 80 -93 38 10 -17 4 -19 -24 -7 -21 9 -56 15 -78 13 -22 -1 -119 -8 -216 -15 l-176 -12 13 52 c8 33 5 52 -9 52 -12 0 -22 -26 -22 -59z"/> <path d="M0 3268 c0 -16 55 -68 71 -68 8 0 27 -16 41 -35 17 -23 27 -26 27 -9 1 14 -15 42 -34 62 -36 36 -105 70 -105 50z"/> <path d="M2702 3262 c-16 -10 -29 -58 -32 -115 -3 -53 -1 -66 4 -29 5 37 22 80 37 96 46 46 40 79 -9 48z"/> <path d="M2845 3259 c-58 -23 -89 -105 -73 -192 25 -133 157 -164 329 -77 81 42 284 68 249 33 -4 -3 11 -24 32 -45 21 -21 38 -56 38 -78 0 -22 10 -40 22 -40 13 0 18 19 11 45 -6 25 -3 58 7 74 9 16 12 37 6 47 -6 10 -19 6 -28 -9 -13 -21 -21 -22 -41 -2 -19 19 -19 25 -1 25 13 0 24 9 24 20 0 11 -35 20 -79 20 -43 0 -85 10 -92 22 -10 16 5 18 48 9 61 -14 91 14 38 36 -20 8 -20 10 0 11 14 1 25 18 25 37 -1 25 -5 28 -17 10 -22 -35 -116 -59 -218 -55 -67 2 -85 -5 -85 -31 0 -25 14 -32 55 -27 30 4 39 2 20 -4 -19 -6 -35 -21 -35 -33 0 -12 -5 -16 -12 -10 -7 7 -31 -5 -54 -26 -43 -40 -134 -54 -134 -20 0 10 20 22 45 27 l45 9 -45 2 c-26 2 -45 16 -45 34 0 17 -9 26 -20 19 -11 -7 -14 -36 -7 -64 9 -37 6 -48 -10 -38 -40 25 -20 243 22 239 19 -1 35 6 35 17 0 12 23 15 55 8 41 -10 47 -8 25 7 -36 25 -75 25 -135 0z"/> <path d="M7483 3250 c3 -68 -3 -81 -23 -50 -15 24 -19 20 -19 -20 0 -82 19 -130 62 -157 31 -20 38 -20 26 -1 -10 16 -7 19 9 9 15 -9 52 13 97 57 54 54 88 72 138 72 37 0 67 8 67 17 0 25 -147 11 -156 -15 -4 -12 -17 -22 -28 -22 -11 0 -15 14 -8 31 6 18 3 26 -8 19 -11 -7 -20 -29 -20 -49 0 -59 -98 -67 -112 -9 -7 25 -8 53 -2 62 5 9 1 34 -8 56 -17 40 -17 40 -15 0z"/> <path d="M2847 3196 c-5 -9 -7 -16 -3 -17 61 -10 203 -7 222 5 15 9 1 16 -36 18 -33 2 -85 5 -116 7 -31 1 -61 -4 -67 -13z"/> <path d="M154 3159 c-6 -23 -2 -68 10 -101 48 -138 -50 -398 -149 -398 -17 0 -17 -6 -1 -22 27 -27 152 38 139 72 -5 12 4 39 19 60 16 21 28 54 28 74 0 20 14 36 30 36 19 0 30 19 30 55 -1 38 -6 47 -18 28 -13 -22 -20 -22 -33 -2 -9 15 -1 36 22 52 33 24 33 27 3 27 -19 0 -35 7 -36 15 -2 8 -6 41 -9 72 -9 74 -21 85 -35 32z"/> <path d="M2603 3120 c-3 -45 4 -80 16 -80 12 0 21 36 21 80 0 44 -7 80 -16 80 -9 0 -18 -36 -21 -80z"/> <path d="M4575 3185 c13 -4 34 -44 46 -88 18 -68 26 -76 51 -55 24 20 25 28 4 41 -21 14 -21 20 1 35 23 14 23 19 0 28 -22 9 -22 15 3 32 23 16 11 20 -50 18 -44 -2 -69 -6 -55 -11z"/> <path d="M6612 3065 c19 -79 47 -128 67 -116 17 11 -49 171 -70 171 -5 0 -4 -25 3 -55z"/> <path d="M7705 3080 c-75 -46 -81 -60 -24 -60 26 0 36 8 27 23 -10 16 0 20 31 12 57 -15 101 1 101 37 0 40 -59 34 -135 -12z"/> <path d="M3730 3081 c-6 -11 -40 -14 -76 -7 -94 17 -58 -8 43 -31 47 -11 81 -14 75 -8 -7 6 -2 23 11 38 17 21 15 27 -9 27 -18 0 -37 -9 -44 -19z"/> <path d="M48 3029 c-7 -28 -8 -84 -2 -125 10 -74 10 -74 -15 -17 -24 55 -25 53 -24 -48 l0 -105 45 52 c48 56 79 188 58 253 -18 56 -47 51 -62 -10z"/> <path d="M7401 2991 c-30 -36 -16 -63 41 -77 37 -10 39 -8 12 22 -16 19 -25 45 -20 59 12 34 -4 32 -33 -4z"/> <path d="M2674 2960 c-6 -22 -2 -40 9 -40 11 0 14 -9 8 -19 -7 -10 22 -28 63 -40 97 -26 280 -27 296 -1 7 11 37 20 66 21 45 0 48 4 21 20 -22 12 -52 12 -87 -1 -72 -28 -197 -25 -226 4 -20 20 -33 20 -64 0 -22 -13 -40 -16 -40 -6 0 10 10 22 21 26 29 9 1 76 -31 76 -14 0 -30 -18 -36 -40z"/> <path d="M4621 2934 c-65 -198 -254 -259 -475 -153 -75 36 -147 64 -161 61 -14 -2 -25 6 -25 17 0 38 -157 24 -199 -18 -40 -40 -40 -49 -11 -245 31 -205 -88 -344 -296 -345 -128 -1 -254 94 -254 190 0 50 -34 119 -59 119 -31 0 -33 -109 -3 -132 16 -12 29 -55 30 -95 2 -71 12 -82 69 -74 15 2 21 -6 14 -18 -7 -11 -4 -21 6 -21 11 0 35 -15 53 -33 26 -26 37 -28 49 -8 11 18 20 19 30 3 7 -12 63 -22 123 -22 61 0 105 8 99 18 -6 10 16 28 49 39 33 12 58 32 55 45 -3 14 13 30 35 36 22 7 41 23 42 37 5 57 9 67 24 58 9 -6 12 20 8 58 -5 37 1 95 13 129 24 69 11 82 -16 15 -17 -42 -19 -41 -20 16 0 34 -11 71 -24 84 -18 18 -12 33 24 62 38 31 52 33 68 13 16 -20 34 -21 71 -5 104 43 176 18 75 -26 -39 -17 -37 -18 15 -8 103 21 130 17 130 -18 0 -29 83 -53 180 -53 79 0 182 40 167 65 -8 14 2 17 29 10 26 -7 53 2 68 21 22 27 21 30 -10 18 -33 -12 -33 -9 4 38 23 29 37 61 31 70 -6 10 -3 18 7 18 25 0 45 77 24 90 -9 6 -27 -20 -39 -56z"/> <path d="M7594 2978 c-20 -12 -60 -16 -89 -9 -46 12 -49 10 -25 -19 14 -17 39 -27 55 -21 15 6 41 -3 58 -19 16 -17 45 -29 63 -28 30 2 30 4 -1 12 -19 5 -35 26 -35 47 0 27 9 34 33 25 23 -9 29 -5 19 11 -17 28 -31 28 -78 1z"/> <path d="M3200 2961 c0 -11 -13 -15 -28 -9 -15 6 -34 1 -41 -11 -7 -11 1 -21 18 -21 62 0 86 -100 33 -142 -25 -21 -41 -49 -36 -63 5 -14 0 -42 -11 -63 -14 -26 -11 -42 8 -54 42 -27 57 -21 57 19 0 20 32 78 72 129 42 54 66 102 57 116 -10 15 -7 19 8 10 13 -8 23 -6 23 5 0 11 -11 24 -25 30 -18 7 -17 10 4 11 21 2 18 10 -10 31 -44 34 -129 41 -129 12z"/> <path d="M6720 2964 c0 -8 38 -28 85 -45 47 -16 82 -37 78 -47 -3 -10 5 -25 19 -33 34 -21 -69 -48 -114 -31 -18 7 -43 5 -56 -5 -12 -9 -52 -23 -88 -30 -37 -7 -81 -27 -98 -44 -29 -29 -29 -32 0 -26 17 4 31 -2 31 -13 0 -11 -11 -18 -26 -15 -34 7 -53 -65 -25 -93 16 -16 16 -22 0 -22 -36 0 -44 -52 -16 -106 20 -39 20 -54 3 -61 -16 -7 -15 -10 3 -11 15 -1 21 -11 14 -22 -7 -11 -3 -20 9 -20 11 0 21 -13 21 -30 0 -29 29 -38 110 -34 22 1 29 -3 15 -9 -62 -26 -14 -47 109 -47 125 0 131 2 95 32 -38 31 -38 31 1 17 84 -30 130 -33 130 -10 0 15 -15 19 -40 11 -22 -7 -40 -4 -40 7 0 23 57 47 80 33 10 -6 23 8 30 30 7 22 28 41 46 41 25 1 21 7 -11 20 -25 10 -45 23 -45 30 0 6 9 6 20 -1 11 -7 34 2 52 19 17 17 41 30 54 29 17 -1 17 -4 -1 -11 -44 -18 -27 -52 20 -40 42 10 42 9 9 -16 -25 -19 -29 -29 -11 -35 16 -6 24 -42 23 -97 -2 -66 1 -76 11 -40 l15 50 26 -63 c14 -35 20 -82 12 -105 -7 -24 -4 -41 9 -41 11 0 21 8 21 19 0 10 18 17 39 16 31 -3 37 -14 28 -49 -10 -42 -5 -46 71 -46 69 0 82 -6 82 -40 0 -42 29 -54 50 -20 21 33 90 24 77 -10 -6 -16 -1 -30 11 -30 12 0 22 32 22 70 0 39 10 70 21 70 12 0 35 14 52 30 33 34 76 41 57 10 -7 -11 -4 -20 5 -20 10 0 20 90 23 200 4 173 0 198 -27 188 -17 -7 -31 -2 -31 10 0 13 14 28 30 35 17 6 30 25 30 42 0 20 -8 24 -25 12 -22 -16 -64 -19 -125 -10 -80 12 -19 93 67 89 51 -2 75 1 53 6 -22 5 -84 23 -137 40 -200 62 -215 -69 -20 -169 169 -86 179 -362 15 -424 -173 -65 -326 14 -370 192 -60 237 -196 312 -280 155 -123 -230 -458 -185 -458 61 0 121 65 199 194 232 183 47 236 98 161 155 -41 32 -195 87 -195 70z"/> <path d="M3666 2905 c-36 -29 -65 -110 -76 -215 -2 -11 9 -45 24 -75 25 -51 24 -55 -13 -55 -44 0 -56 -32 -18 -44 14 -5 17 -25 8 -53 -12 -36 -20 -40 -43 -22 -22 19 -28 17 -28 -9 0 -18 -16 -32 -39 -32 -21 0 -44 -9 -51 -20 -7 -11 -28 -19 -46 -19 -28 2 -27 5 6 19 22 9 29 18 15 19 -14 0 -26 17 -26 36 -2 30 -4 29 -19 -5 -13 -31 -18 -21 -19 45 0 47 -11 85 -22 85 -12 0 -8 14 9 31 17 17 43 46 57 65 14 19 43 44 65 56 22 12 43 44 47 70 6 46 5 46 -22 10 -28 -37 -29 -36 -43 10 -14 48 -14 47 -47 -17 -18 -36 -41 -65 -51 -65 -10 0 -7 -15 9 -34 24 -30 23 -32 -10 -20 -28 11 -35 7 -26 -16 8 -19 0 -30 -20 -30 -62 0 -24 -197 51 -264 153 -137 367 10 333 229 -29 183 -22 237 35 287 84 72 48 102 -40 33z"/> <path d="M6607 2894 c-6 -9 24 -14 66 -12 42 2 109 -2 147 -10 60 -12 64 -10 31 11 -45 27 -229 36 -244 11z"/> <path d="M2880 2780 c0 -11 36 -20 80 -20 44 0 80 9 80 20 0 11 -36 20 -80 20 -44 0 -80 -9 -80 -20z"/> <path d="M5069 2640 c-32 -6 -58 -19 -56 -30 5 -28 -34 -72 -53 -60 -80 49 -109 -390 -30 -442 39 -25 45 -44 38 -114 -5 -59 -2 -75 12 -54 15 23 19 24 20 3 0 -20 15 -24 55 -14 68 18 59 8 -55 -54 -91 -50 -210 -83 -389 -107 -72 -10 -116 -30 -157 -71 -31 -31 -65 -57 -76 -57 -10 0 -18 -13 -18 -30 0 -16 -9 -30 -20 -30 -11 0 -20 -16 -20 -35 1 -30 3 -31 20 -5 17 26 19 25 20 -5 0 -19 -9 -35 -20 -35 -21 0 -15 -102 11 -182 9 -29 6 -39 -9 -29 -13 8 -21 3 -17 -13 10 -48 117 -102 207 -104 48 -1 88 -10 88 -19 0 -10 -31 -14 -70 -9 -38 4 -70 1 -70 -8 0 -29 134 -17 160 14 14 17 35 29 47 28 15 -1 14 -5 -2 -11 -51 -21 -23 -47 50 -47 47 0 65 7 49 17 -19 12 -7 32 45 77 81 69 90 95 27 75 -39 -13 -38 -9 11 34 44 37 74 46 137 40 55 -5 72 -13 53 -25 -20 -13 -20 -17 -2 -18 14 0 25 -9 25 -20 0 -11 -17 -20 -37 -20 -26 0 -42 -19 -49 -56 -7 -33 -33 -68 -65 -84 -49 -27 -53 -37 -44 -130 5 -55 5 -89 0 -75 -20 59 -65 24 -63 -50 3 -75 3 -75 18 -15 15 60 15 60 18 -15 2 -89 74 -178 106 -132 14 20 16 16 7 -13 -16 -59 43 -86 170 -79 144 8 164 12 143 33 -10 10 -41 8 -71 -7 -44 -19 -59 -19 -79 2 -19 21 -19 24 1 13 14 -8 56 -3 94 11 61 21 75 20 110 -12 45 -41 53 -30 20 24 -17 27 -10 61 28 145 28 61 51 98 52 84 0 -15 -9 -45 -21 -67 -12 -22 -17 -44 -13 -49 5 -4 29 32 55 82 25 49 58 90 73 90 36 0 89 -110 74 -154 -8 -20 -7 -30 1 -23 8 7 38 -9 67 -36 29 -27 63 -44 76 -39 13 5 23 -6 22 -25 -2 -21 14 -35 47 -38 45 -4 46 -3 10 14 -30 14 -15 17 56 13 52 -4 102 -14 110 -22 8 -8 -4 -10 -26 -3 -22 7 -53 3 -70 -8 -22 -15 1 -19 80 -15 90 5 112 13 121 46 8 28 27 39 63 37 58 -4 83 45 53 100 -14 24 -11 30 9 22 29 -11 65 84 58 151 -2 17 -7 73 -12 125 -10 105 -23 135 -58 135 -13 1 -38 30 -56 65 -31 64 -48 76 -211 148 -46 20 -79 44 -73 53 5 9 -3 30 -17 48 -24 28 -21 30 22 16 45 -14 47 -13 16 17 -17 18 -41 33 -52 33 -12 0 -11 23 3 60 25 65 64 84 45 22 -7 -21 -2 -45 11 -53 17 -11 21 3 14 48 l-9 63 96 -12 c62 -8 97 -6 97 8 0 11 -20 17 -45 12 -25 -4 -5 6 43 22 66 22 96 24 115 7 18 -14 27 -15 27 -1 0 11 -11 25 -25 30 -14 5 -3 18 27 30 50 20 77 72 78 150 0 20 -9 31 -20 24 -11 -7 -20 -28 -20 -47 0 -62 -191 -182 -293 -183 -58 0 -187 -56 -187 -80 0 -11 -13 -20 -29 -20 -90 0 -90 -174 -1 -219 33 -17 65 -36 70 -42 6 -6 37 -22 71 -36 219 -88 361 -381 264 -545 -20 -35 -20 -45 0 -52 14 -5 25 -19 25 -32 0 -16 -6 -16 -22 0 -16 16 -41 9 -93 -26 -187 -127 -336 -37 -425 256 -87 287 -278 302 -275 21 2 -162 -45 -268 -137 -312 -229 -109 -380 78 -259 318 37 71 43 101 26 112 -13 8 -17 22 -8 30 8 9 23 3 33 -13 15 -25 24 -23 56 12 135 144 97 310 -64 280 -75 -14 -259 -164 -240 -195 6 -10 4 -16 -6 -14 -9 2 -49 -12 -90 -30 -151 -67 -286 -22 -307 102 -21 128 -2 245 41 245 14 0 37 14 51 31 50 61 144 92 335 112 345 35 395 117 205 337 -33 39 -69 80 -79 93 -68 81 -38 278 58 382 59 65 299 129 316 84 3 -8 33 -43 65 -77 32 -34 59 -76 59 -93 0 -17 9 -26 20 -19 11 7 -4 55 -36 116 l-55 104 -120 0 c-66 0 -147 -4 -180 -10z"/> <path d="M110 2540 c7 -11 34 -20 61 -20 27 0 49 9 49 20 0 11 -28 20 -61 20 -36 0 -56 -8 -49 -20z"/> <path d="M275 2536 c-8 -26 -133 -30 -220 -6 -34 9 -55 7 -55 -6 0 -12 16 -25 35 -30 33 -9 33 -9 0 -12 -19 -1 -35 -15 -35 -32 0 -23 11 -25 51 -10 76 29 244 25 263 -7 9 -14 31 -32 50 -38 100 -37 141 -269 68 -380 -81 -122 -249 -167 -397 -105 -25 10 -35 5 -35 -18 0 -21 18 -33 55 -34 l55 -1 -58 -26 -59 -26 71 -23 c49 -16 84 -17 118 -2 43 18 42 19 -15 9 -35 -6 -69 -2 -76 10 -14 23 -14 23 149 29 120 4 244 64 196 95 -18 11 -13 16 19 17 41 0 57 30 46 88 -2 10 6 24 18 31 12 8 25 49 29 92 4 44 11 88 15 100 10 30 -90 143 -119 134 -15 -5 -19 4 -12 24 15 39 -29 96 -64 83 -14 -6 -32 8 -38 29 -14 44 -42 52 -55 15z"/> <path d="M5057 2499 c-109 -63 -105 -277 7 -396 136 -146 158 -273 62 -358 -51 -44 -81 -52 -276 -75 -172 -21 -230 -34 -220 -50 6 -9 -6 -13 -25 -8 -59 13 -179 -121 -172 -192 1 -16 3 -41 5 -55 13 -140 165 -133 345 17 205 172 317 198 418 97 83 -83 52 -192 -108 -385 -135 -163 -112 -334 46 -334 117 0 201 136 197 320 -3 173 -2 177 83 202 147 44 252 -44 304 -258 60 -248 192 -317 346 -182 176 154 53 421 -259 564 -128 59 -170 109 -170 205 0 149 76 202 411 288 283 72 204 407 -88 375 -87 -9 -296 -173 -244 -190 31 -11 25 -44 -8 -44 -16 0 -34 -9 -41 -20 -16 -26 7 -100 30 -100 20 0 63 139 50 160 -5 8 16 10 46 6 47 -7 50 -6 17 15 -35 22 -35 24 4 61 45 41 83 50 83 18 0 -11 -9 -20 -20 -20 -11 0 -20 -9 -20 -20 0 -38 34 -20 56 30 25 55 164 76 164 25 1 -17 7 -15 22 5 17 25 23 25 32 3 6 -16 28 -45 49 -65 43 -44 50 -74 9 -39 -20 16 -33 16 -41 2 -8 -12 -3 -21 9 -21 12 0 16 -10 9 -22 -9 -15 -24 -11 -46 11 -29 28 -29 35 -4 51 17 10 23 24 15 32 -23 24 -39 -6 -45 -84 -9 -106 -33 -116 -254 -108 -59 2 -95 -6 -95 -20 0 -12 8 -17 18 -11 10 6 39 3 64 -6 l46 -17 -55 -36 c-64 -42 -98 -24 -42 22 36 29 36 30 2 20 -20 -7 -45 -12 -55 -12 -10 0 -18 -18 -18 -40 0 -46 -25 -52 -58 -12 -18 21 -15 30 11 40 26 11 28 18 9 38 -19 19 -31 15 -58 -19 -63 -81 -194 -59 -215 37 -7 33 -7 141 1 239 12 154 9 190 -22 248 -48 90 -83 101 -80 27 1 -34 11 -55 25 -50 26 10 73 -82 55 -111 -6 -11 -15 -72 -18 -137 -4 -65 -12 -128 -20 -140 -7 -12 -4 -33 7 -46 10 -13 23 -51 26 -84 6 -48 18 -62 67 -71 57 -11 58 -12 15 -27 -25 -8 -41 -22 -35 -32 6 -9 -17 -23 -50 -30 -92 -20 -71 -46 27 -35 134 15 195 -89 115 -193 -86 -112 -229 -42 -218 108 5 64 0 79 -26 75 -18 -3 -45 10 -60 29 -19 22 -19 29 -3 19 25 -15 90 10 87 34 -1 7 5 11 13 8 8 -3 13 -12 10 -20 -8 -23 51 -18 65 5 7 11 4 20 -7 20 -10 0 -37 28 -58 62 l-40 62 -13 -72 c-8 -40 -20 -72 -28 -72 -23 0 -2 209 23 224 40 25 -16 86 -74 82 -29 -2 -51 3 -50 10 7 54 -5 92 -21 66 -29 -45 -74 73 -72 190 1 101 37 178 72 157 10 -6 18 -2 18 10 0 26 -19 26 -63 0z m153 -928 c26 -10 31 -19 14 -25 -14 -5 -37 0 -51 11 -14 12 -43 18 -64 15 -21 -3 -27 -2 -13 3 15 5 22 22 15 41 -12 29 -9 29 23 1 20 -17 54 -38 76 -46z m-355 15 c-20 -5 -49 -40 -64 -78 -19 -43 -43 -68 -67 -68 -21 0 -59 -18 -84 -40 -53 -46 -47 -44 -88 -28 -35 13 -44 68 -12 68 20 0 100 72 100 90 0 6 -13 10 -30 10 -16 0 -30 9 -30 20 0 11 14 20 30 20 17 0 30 -8 30 -19 0 -22 141 -4 169 22 10 9 33 16 50 15 23 -2 22 -5 -4 -12z m761 -80 c5 -64 99 -149 148 -134 19 6 52 -8 75 -31 23 -23 31 -41 18 -41 -12 0 -34 16 -48 35 -14 19 -32 28 -40 20 -24 -23 27 -69 91 -82 39 -8 60 -24 60 -46 0 -27 6 -29 23 -12 18 18 17 31 -2 54 -18 22 -19 31 -3 31 39 0 62 -87 30 -112 -44 -35 -34 -48 37 -49 51 -2 57 -5 26 -17 -26 -10 -31 -20 -15 -30 44 -27 25 -110 -39 -172 -69 -66 -93 -67 -58 -2 19 36 13 45 -58 81 -74 38 -96 101 -36 101 12 0 2 17 -22 37 -24 21 -43 46 -43 56 0 27 -105 137 -147 153 -22 9 -33 26 -26 44 7 17 4 30 -5 30 -10 0 -22 20 -29 45 -11 44 -11 44 20 5 30 -38 31 -37 20 25 -7 36 -5 65 3 65 8 0 17 -24 20 -54z m87 -259 c21 -18 37 -52 36 -75 0 -36 -6 -33 -33 18 -17 33 -42 67 -54 75 -12 8 -14 15 -4 15 11 0 35 -15 55 -33z m-591 -305 c-1 -66 -8 -125 -15 -131 -9 -10 -9 145 1 234 7 61 16 -7 14 -103z"/> <path d="M2435 2466 c-19 -5 -35 -21 -35 -36 0 -15 -10 -30 -23 -34 -13 -5 -29 -80 -37 -181 -18 -237 -122 -351 -205 -227 -10 15 -21 13 -35 -8 -31 -47 -25 -54 60 -75 44 -12 80 -14 80 -5 0 8 17 20 38 25 62 17 97 96 108 248 21 290 203 363 277 112 14 -48 -12 -82 -30 -40 -7 14 -7 1 -1 -28 13 -60 -14 -120 -87 -196 -27 -28 -69 -82 -94 -121 -41 -63 -46 -95 -34 -215 2 -14 17 -25 35 -25 23 0 28 10 18 35 -28 72 -24 131 12 167 21 21 38 42 38 47 0 4 29 39 65 78 228 244 132 553 -150 479z"/> <path d="M5126 2458 c-46 -17 -80 -58 -48 -58 11 0 25 9 32 20 7 11 49 20 95 20 45 0 76 5 70 12 -19 19 -105 23 -149 6z"/> <path d="M4823 2405 c-2 -30 -4 -68 -6 -85 -6 -60 3 -166 14 -155 16 15 23 295 8 295 -7 0 -14 -25 -16 -55z"/> <path d="M1764 2390 c-84 -96 -63 -223 56 -340 108 -107 134 -190 59 -190 -23 0 -59 -9 -80 -21 -22 -11 -39 -13 -39 -3 0 10 -36 28 -80 42 -44 13 -80 31 -80 41 0 92 -260 66 -304 -31 -13 -26 -29 -48 -37 -48 -69 0 -7 -238 73 -281 26 -14 42 -33 36 -42 -11 -19 25 -24 132 -20 57 2 63 -1 30 -16 -36 -16 -35 -18 13 -20 30 0 57 7 60 17 4 11 44 12 97 2 50 -9 93 -13 97 -10 17 18 -160 50 -277 51 l-130 0 49 41 49 41 -57 -15 c-40 -10 -53 -7 -43 9 9 14 3 18 -14 12 -18 -7 -34 6 -43 35 -13 45 -14 45 -33 6 -16 -35 -18 -34 -9 10 6 28 11 76 11 107 0 126 171 205 257 119 15 -15 54 -33 85 -39 61 -13 75 -36 33 -55 -14 -7 1 -7 32 -1 31 6 51 3 45 -7 -6 -11 24 -12 73 -3 46 8 87 25 91 37 4 12 16 17 26 11 10 -6 19 0 21 15 7 58 7 152 0 145 -15 -15 -65 51 -53 71 7 11 -1 15 -17 8 -20 -7 -47 18 -81 77 -63 107 -64 123 -11 197 95 133 237 11 240 -208 2 -93 26 -172 44 -143 28 47 -23 354 -67 402 -64 67 -194 66 -254 -3z"/> <path d="M55 2374 c-96 -38 -13 -86 132 -77 32 2 70 -6 84 -18 15 -12 37 -17 48 -10 12 8 21 4 21 -8 0 -11 -13 -21 -30 -21 -21 0 -25 -11 -13 -45 19 -55 8 -115 -22 -115 -13 0 -7 -11 12 -25 28 -21 7 -25 -127 -25 -177 0 -210 -27 -82 -69 264 -87 477 279 227 389 -25 11 -45 26 -45 35 0 22 -141 14 -205 -11z"/> <path d="M5465 2295 c0 -58 -8 -146 -19 -196 -44 -205 76 -251 167 -64 60 123 165 241 247 278 28 12 82 37 120 54 l70 31 -126 -3 c-70 -2 -110 -9 -91 -16 36 -13 -25 -63 -83 -69 -48 -5 -92 -37 -83 -61 6 -14 -2 -42 -16 -62 -24 -32 -29 -26 -40 63 -20 148 -26 168 -29 90 -1 -38 8 -105 20 -147 15 -56 15 -84 0 -99 -16 -16 -23 -2 -24 47 l-2 69 -21 -65 c-31 -96 -50 -79 -48 44 1 60 8 100 15 88 22 -35 42 18 26 68 -13 44 -14 44 -30 5 -14 -38 -15 -38 -17 5 -3 95 -36 39 -36 -60z"/> <path d="M6064 2367 c-21 -22 -17 -27 23 -27 26 0 60 -14 74 -31 14 -17 38 -26 54 -20 20 8 26 2 18 -19 -7 -16 -4 -30 6 -30 9 0 26 -27 38 -60 12 -33 27 -60 34 -60 8 0 9 27 2 60 -7 34 -3 60 8 60 46 0 12 37 -66 71 -47 21 -89 43 -95 50 -24 29 -72 32 -96 6z"/> <path d="M5073 2327 c-21 -22 -15 -103 9 -118 15 -9 18 0 9 27 -7 22 -3 46 8 53 12 8 21 22 21 32 0 22 -27 25 -47 6z"/> <path d="M2110 1801 c-22 -8 -51 -11 -65 -6 -31 12 -32 -15 0 -115 20 -64 32 -77 62 -68 25 8 33 5 24 -10 -7 -12 -4 -22 7 -22 29 0 44 32 31 66 -7 17 -27 25 -47 20 -62 -16 -38 79 25 100 29 9 53 26 53 36 0 21 -35 21 -90 -1z"/> <path d="M2181 1742 c-16 -29 -13 -41 11 -50 19 -7 27 -25 20 -43 -6 -18 -3 -26 8 -19 26 16 26 150 1 150 -11 0 -29 -17 -40 -38z"/> <path d="M2508 1648 c7 -17 12 -37 12 -45 0 -7 45 -10 100 -6 63 4 100 -1 100 -15 0 -12 10 -22 21 -22 12 0 16 9 9 20 -7 11 -3 20 9 20 11 0 21 -9 21 -20 0 -11 18 -20 40 -20 96 0 17 65 -117 96 -151 34 -210 32 -195 -8z"/> <path d="M5375 1638 c-67 -39 -34 -138 46 -138 36 0 61 78 39 120 -24 45 -35 47 -85 18z"/> <path d="M1936 1610 c-5 -6 -67 -15 -136 -20 -131 -10 -157 -19 -132 -45 28 -27 254 -18 243 10 -5 14 3 25 20 25 16 0 29 9 29 20 0 22 -8 25 -24 10z"/> <path d="M2009 1582 c8 -13 -3 -22 -28 -22 -22 0 -41 -10 -41 -22 0 -12 14 -17 31 -10 24 9 29 2 20 -26 -9 -26 0 -40 28 -48 23 -6 41 -27 40 -47 0 -35 -2 -34 -32 3 -30 38 -31 35 -21 -45 10 -81 -9 -114 -34 -60 -6 14 -6 3 0 -23 10 -39 6 -46 -20 -36 -34 14 -39 -7 -19 -81 6 -25 20 -45 31 -45 10 0 13 9 5 21 -7 11 11 51 40 89 54 72 92 294 47 285 -11 -3 -26 8 -31 23 -7 20 0 25 22 16 47 -18 41 1 -9 27 -30 16 -39 16 -29 1z"/> <path d="M2240 1480 c0 -22 -9 -40 -20 -40 -32 0 -23 -55 22 -143 29 -58 38 -102 29 -148 -8 -43 -4 -68 12 -73 18 -6 16 -30 -9 -92 -20 -49 -25 -84 -13 -84 11 0 25 16 31 35 7 19 22 57 35 83 18 38 17 50 -2 57 -15 5 -25 44 -25 98 0 53 -12 102 -30 120 -35 35 -39 67 -9 67 13 0 16 17 9 40 -11 35 -4 40 57 40 62 0 68 -5 58 -45 -11 -44 -10 -44 37 5 l48 50 -43 35 c-63 51 -187 47 -187 -5z"/> <path d="M2889 1452 c-7 -38 -7 -96 1 -130 15 -68 -91 -139 -145 -97 -17 14 -28 10 -37 -13 -7 -17 -29 -32 -49 -32 -62 0 -62 -35 -1 -44 38 -6 55 -1 49 14 -5 14 16 25 52 27 104 5 121 9 121 26 0 10 12 17 27 17 30 0 61 205 33 216 -9 3 -11 23 -6 45 6 21 1 39 -11 39 -12 0 -27 -31 -34 -68z"/> <path d="M982 1412 c-18 -22 -18 -31 2 -40 20 -9 19 -15 -4 -25 -16 -7 -75 -60 -130 -117 -91 -95 -166 -150 -201 -150 -8 0 -3 13 10 28 16 20 16 33 2 41 -12 8 -21 -1 -21 -18 0 -47 -36 -37 -44 13 -6 42 -116 94 -116 54 0 -10 -10 -18 -21 -18 -12 0 -16 9 -9 20 7 12 -18 19 -64 18 -42 0 -65 -6 -51 -11 14 -6 25 -20 25 -31 0 -11 -12 -16 -27 -10 -33 13 -60 -4 -89 -56 -13 -22 -23 -29 -23 -15 -1 36 -41 31 -41 -5 0 -16 9 -30 20 -30 11 0 20 -26 20 -58 0 -81 55 -136 160 -160 80 -19 81 -20 15 -13 -114 13 -43 -48 80 -68 76 -13 82 -17 32 -19 -35 -1 -80 -7 -100 -14 -31 -10 -32 -8 -7 10 24 17 24 21 2 22 -49 0 -165 -83 -154 -112 6 -15 -4 -42 -22 -60 -31 -30 -31 -34 0 -51 19 -11 34 -32 34 -49 0 -16 19 -50 43 -74 24 -24 37 -33 29 -19 -16 28 0 30 58 5 34 -15 35 -17 5 -19 -19 0 -35 -10 -35 -20 0 -32 126 1 167 43 20 21 43 32 50 25 7 -8 2 -18 -12 -23 -14 -5 -24 -38 -23 -73 0 -34 6 -49 12 -33 6 17 29 50 51 74 23 25 33 53 24 68 -10 15 -7 19 8 10 31 -20 29 -43 -8 -81 -18 -17 -26 -31 -18 -31 8 0 3 -13 -9 -28 -43 -51 -15 -199 38 -202 6 0 40 -13 76 -28 81 -34 224 -1 224 52 0 29 -4 29 -38 -2 -153 -139 -341 53 -233 237 94 161 46 258 -74 153 -62 -55 -152 -102 -194 -102 -65 0 -163 137 -128 179 48 57 132 101 193 101 94 0 174 41 174 89 0 56 -72 91 -187 91 -94 0 -193 37 -193 73 0 13 -5 37 -11 53 -47 123 208 191 335 89 72 -59 76 -59 125 -27 31 20 51 24 51 11 0 -13 -18 -27 -40 -33 -54 -14 -50 -34 11 -66 70 -38 109 5 126 142 16 130 140 242 221 199 27 -15 42 -15 42 -2 0 12 9 21 20 21 11 0 20 -18 20 -40 0 -22 7 -40 16 -40 8 0 26 -29 39 -64 26 -67 -42 -216 -96 -216 -12 0 -15 -10 -7 -23 9 -15 5 -18 -10 -8 -23 14 -102 -39 -102 -67 1 -33 38 -65 60 -52 18 11 18 19 1 29 -16 10 -14 22 9 41 26 22 29 21 17 -10 -12 -32 -5 -35 64 -24 43 7 82 22 86 34 3 11 16 20 27 20 11 0 15 -14 8 -31 -6 -17 -4 -27 5 -21 9 5 41 -3 72 -19 61 -32 100 -21 50 14 -25 18 -25 19 0 12 18 -5 31 -35 33 -74 2 -36 15 -73 30 -82 33 -21 -34 -154 -87 -170 -19 -7 -35 -21 -35 -33 0 -13 12 -11 30 4 17 14 37 19 45 12 8 -8 1 -23 -16 -33 -16 -10 -19 -19 -7 -19 44 0 123 139 115 204 -4 34 4 75 17 90 19 24 13 27 -36 17 -32 -6 -47 -6 -33 1 34 16 31 61 -5 75 -18 7 -25 26 -18 47 7 22 5 27 -5 15 -24 -31 -87 -51 -112 -36 -11 7 5 24 37 39 l58 26 -70 -8 c-38 -4 -97 -11 -130 -16 -33 -5 -44 -5 -25 0 46 12 80 78 65 127 -7 21 -5 39 4 39 22 0 20 153 -2 174 -10 9 -13 -4 -7 -29 6 -25 3 -40 -7 -34 -10 6 -18 27 -18 47 0 20 -18 52 -40 72 -22 20 -41 55 -42 78 0 23 -6 30 -12 16 -8 -20 -16 -21 -39 -1 -23 19 -28 18 -23 -5 3 -15 -7 -28 -24 -28 -16 0 -28 11 -25 25 7 33 -5 32 -33 -3z m-153 -295 c-13 -76 -24 -97 -53 -97 -14 0 -13 9 2 28 13 15 22 35 20 45 -5 19 22 87 34 87 5 0 4 -28 -3 -63z"/> <path d="M2460 1372 c0 -41 22 -92 39 -92 8 0 10 27 5 60 -9 60 -44 85 -44 32z"/> <path d="M953 1231 c-29 -27 -53 -65 -52 -85 0 -26 9 -20 31 21 17 31 37 51 43 44 7 -6 2 -22 -11 -35 -13 -13 -25 -51 -25 -85 -2 -49 -5 -53 -17 -22 -11 28 -19 32 -31 13 -8 -13 -10 -30 -4 -36 16 -15 -44 -126 -68 -126 -33 0 -21 -37 16 -46 33 -9 33 -10 -1 -12 -19 -1 -40 12 -47 28 -6 17 -23 30 -36 30 -14 0 -60 28 -103 62 -172 136 -306 159 -338 58 -26 -82 29 -119 177 -120 73 0 190 -51 196 -84 17 -107 -37 -160 -182 -177 -158 -19 -222 -81 -152 -150 40 -41 125 -36 175 11 56 52 30 78 -29 28 l-45 -38 38 45 c24 28 52 41 74 34 19 -6 40 -1 47 10 20 31 84 25 120 -10 44 -45 39 -107 -21 -237 -49 -107 -50 -116 -19 -163 33 -50 151 -72 151 -28 0 12 9 16 20 9 30 -18 -2 54 -43 98 -20 21 -31 45 -26 53 5 9 0 40 -11 70 -19 48 -18 52 9 30 36 -30 40 -15 11 38 -14 27 -12 40 8 47 21 8 26 -11 23 -83 -5 -115 76 -299 92 -208 24 143 -1 281 -47 252 -14 -8 -17 -4 -8 10 8 13 22 19 30 14 9 -5 9 30 2 79 -7 48 -8 86 -2 85 7 -2 32 8 57 22 54 29 172 12 207 -30 13 -15 40 -23 60 -16 21 6 53 2 73 -10 28 -17 24 -19 -25 -10 -50 10 -54 8 -24 -11 96 -61 196 39 143 143 -40 77 -143 103 -264 67 -53 -16 -104 -21 -121 -12 -16 9 -46 12 -67 7 -20 -5 -37 0 -37 12 0 12 14 17 30 10 22 -8 30 3 30 39 0 32 23 70 65 105 36 31 55 59 43 63 -77 26 -95 60 -39 74 48 12 51 18 28 46 -24 29 -22 30 18 9 25 -14 45 -16 45 -5 0 10 -11 23 -25 28 -14 5 -18 16 -10 25 21 22 39 -1 46 -60 4 -42 -3 -51 -43 -51 -54 0 -64 -29 -16 -48 45 -17 44 -18 78 48 69 133 -85 235 -197 131z m-381 -229 l49 -39 -67 6 c-117 9 -138 49 -37 70 4 0 29 -16 55 -37z m367 -26 c0 15 11 20 23 13 13 -8 6 -27 -20 -51 -54 -51 -57 -49 -46 27 9 55 12 59 26 25 8 -22 16 -28 17 -14z m-71 -186 c55 -42 15 -130 -58 -130 -114 0 -105 138 10 157 6 1 27 -11 48 -27z m422 -70 c-7 -11 -34 -20 -60 -20 -26 0 -53 9 -60 20 -7 12 17 20 60 20 43 0 67 -8 60 -20z"/> <path d="M780 740 c0 -22 13 -40 29 -40 42 0 61 41 29 62 -43 27 -58 21 -58 -22z"/> <path d="M7520 1197 c0 -9 17 -17 39 -17 21 0 45 -10 53 -23 10 -16 -2 -20 -37 -13 -48 9 -104 -102 -69 -137 5 -4 14 19 21 52 14 72 47 80 59 16 l9 -45 2 45 c3 49 33 61 50 20 8 -20 10 -20 11 0 1 14 16 25 32 25 17 0 30 9 30 20 0 11 -17 20 -39 20 -21 0 -44 8 -50 18 -14 24 -111 41 -111 19z"/> <path d="M1870 1140 c8 -38 17 -90 19 -115 2 -25 11 -52 20 -60 9 -8 12 33 6 91 -5 59 -21 117 -35 130 -20 19 -22 10 -10 -46z"/> <path d="M7069 1117 c-11 -34 -17 -37 -32 -15 -15 22 -18 19 -13 -10 6 -39 96 -87 96 -51 0 10 -9 19 -20 19 -11 0 -20 14 -20 30 0 17 9 30 20 30 11 0 20 9 20 20 0 37 -37 20 -51 -23z"/> <path d="M3802 1015 c-62 -39 -65 -44 -31 -68 20 -15 29 -33 20 -42 -9 -8 -21 -4 -25 10 -5 14 -18 20 -28 14 -10 -6 -18 0 -18 15 -1 19 -6 18 -19 -3 -12 -19 -12 -34 1 -42 31 -19 1 -70 -43 -74 -21 -1 -39 5 -39 14 0 9 -31 51 -68 93 -126 142 -385 97 -422 -73 -7 -31 -25 -61 -41 -67 -46 -17 -37 -112 11 -112 22 0 40 -9 40 -20 0 -11 -12 -20 -28 -20 -15 0 -32 -17 -37 -38 -9 -33 -23 -37 -92 -28 -93 13 -303 -117 -303 -187 0 -13 -11 -28 -25 -34 -19 -8 -20 -14 -1 -27 26 -18 28 -106 3 -106 -8 0 0 -26 18 -58 19 -33 40 -55 47 -51 27 17 38 -57 14 -89 -20 -27 -20 -28 4 -7 32 28 68 34 52 8 -6 -9 50 -17 124 -18 129 -2 131 -1 50 17 -289 67 -270 446 22 434 61 -2 101 -10 90 -17 -40 -25 186 -105 241 -86 78 28 71 74 -28 186 -96 108 -123 230 -65 301 29 36 165 115 147 85 -7 -11 10 -26 37 -33 74 -19 113 -95 130 -256 28 -254 219 -272 220 -21 2 289 149 419 302 267 100 -101 66 -252 -100 -449 -144 -171 -113 -237 122 -263 100 -11 122 -22 185 -91 39 -44 84 -79 101 -79 36 0 41 81 6 116 -13 13 -15 24 -5 24 78 2 -195 119 -277 120 -64 0 -92 7 -83 22 8 13 43 17 86 9 72 -11 72 -11 23 18 -27 16 -41 30 -30 31 11 0 7 9 -10 20 -25 17 -23 22 15 32 24 7 40 20 34 29 -5 9 0 22 11 29 11 7 15 21 9 32 -6 10 -18 15 -25 10 -8 -4 -15 14 -17 41 -3 44 0 46 23 14 23 -32 28 -30 55 24 49 97 10 393 -48 357 -14 -8 -18 -5 -10 8 54 87 -208 151 -325 79z m-90 -266 c7 -28 7 -56 0 -63 -6 -7 -13 9 -15 36 -2 36 -6 31 -17 -22 l-15 -70 -2 85 c-3 93 29 115 49 34z"/> <path d="M7234 1047 c-25 -25 -15 -37 37 -40 30 -2 48 6 43 20 -9 27 -60 40 -80 20z"/> <path d="M7760 1010 c-12 -31 -17 -66 -12 -78 5 -13 10 -10 10 6 1 15 18 39 37 53 27 21 30 32 11 51 -19 19 -29 13 -46 -32z"/> <path d="M7543 926 c-2 -68 4 -128 12 -133 8 -5 12 33 9 84 -10 159 -18 178 -21 49z"/> <path d="M7653 975 c-7 -25 -13 -74 -13 -110 0 -36 -10 -82 -23 -103 -29 -46 -7 -110 33 -95 17 7 30 2 30 -11 0 -12 5 -17 12 -11 6 7 5 32 -2 56 -11 34 -18 38 -31 17 -9 -15 -23 -21 -31 -13 -7 8 -5 26 6 40 18 22 51 275 36 275 -3 0 -11 -20 -17 -45z"/> <path d="M7040 915 c0 -88 53 -148 95 -107 6 7 -3 12 -22 12 -18 0 -34 7 -35 15 -1 8 -6 46 -10 83 -12 103 -28 101 -28 -3z"/> <path d="M2151 921 c-71 -33 -86 -34 -134 -9 -36 18 -59 21 -67 8 -7 -12 -21 -16 -31 -9 -10 6 -14 -2 -8 -17 7 -18 31 -25 65 -20 49 8 51 6 19 -20 -51 -42 -43 -64 11 -28 26 17 84 41 129 55 60 18 145 85 99 78 -2 0 -40 -17 -83 -38z"/> <path d="M7797 935 c-10 -84 -4 -149 13 -142 23 9 28 167 5 167 -8 0 -16 -11 -18 -25z"/> <path d="M7471 865 c-8 -30 -25 -61 -38 -69 -13 -9 1 -16 33 -16 38 0 52 -8 42 -23 -9 -15 -5 -18 10 -8 18 11 18 21 1 43 -13 15 -18 50 -11 78 7 27 5 50 -5 50 -10 0 -25 -25 -32 -55z"/> <path d="M7710 885 c4 -25 13 -54 20 -65 7 -11 4 -20 -7 -20 -11 0 -24 11 -30 25 -8 20 -6 -15 6 -84 2 -16 60 69 60 90 1 12 -12 39 -28 60 -29 38 -29 38 -21 -6z"/> <path d="M3879 863 c-40 -32 -50 -63 -60 -192 -31 -383 -339 -361 -339 25 0 129 -113 200 -196 123 -74 -69 -46 -178 74 -284 189 -169 -13 -299 -267 -172 -148 73 -214 68 -260 -22 -99 -191 159 -353 402 -251 135 56 238 35 272 -55 10 -25 36 -35 91 -35 92 0 112 15 79 58 -22 28 -21 29 9 6 42 -34 148 -24 141 12 -4 15 4 21 15 14 15 -10 16 -21 1 -39 -28 -33 -6 -51 61 -51 60 0 94 30 53 47 -44 18 73 10 125 -9 44 -15 42 -16 -15 -8 -36 5 -65 0 -65 -11 0 -11 54 -18 130 -15 72 3 130 10 130 17 0 40 -95 88 -204 103 -213 29 -278 111 -198 247 23 40 36 82 29 94 -7 12 -4 15 8 8 30 -18 139 113 162 194 45 164 -67 286 -178 196z m-223 -567 c60 -60 15 -176 -70 -176 -67 0 -118 87 -89 151 24 54 116 68 159 25z m-564 -68 c26 -7 48 -20 48 -29 0 -25 -83 -46 -97 -25 -7 11 -29 25 -49 32 -20 8 -31 23 -23 35 7 12 26 17 43 10 16 -6 51 -17 78 -23z"/> <path d="M3540 231 c0 -63 35 -84 75 -45 39 39 19 94 -34 94 -30 0 -41 -13 -41 -49z"/> <path d="M2132 850 c-21 -16 -46 -24 -55 -18 -9 6 -17 1 -17 -11 0 -34 51 -24 103 18 54 45 27 55 -31 11z"/> <path d="M7165 810 c0 -28 7 -50 15 -50 27 0 64 58 53 84 -6 17 -10 14 -11 -8 -1 -18 -11 -39 -22 -46 -11 -7 -15 1 -8 17 6 16 2 34 -8 41 -11 6 -19 -11 -19 -38z"/> <path d="M6681 747 c-51 -65 -54 -114 -3 -53 20 24 44 38 53 30 8 -8 9 2 2 22 -11 30 -5 34 32 24 35 -10 39 -8 15 8 -43 31 -53 28 -99 -31z"/> <path d="M7073 767 c-7 -8 -13 -29 -13 -48 0 -19 -14 -40 -32 -47 -61 -23 -72 -12 -25 27 47 39 47 39 3 28 -25 -6 -55 -23 -67 -38 -15 -18 -44 -23 -86 -15 -35 6 -57 5 -49 -3 8 -9 83 -18 167 -21 84 -2 145 1 135 8 -9 7 -16 37 -16 67 2 61 2 60 -17 42z"/> <path d="M7300 738 c0 -10 16 -18 35 -19 32 0 31 -3 -4 -30 -21 -16 -35 -30 -30 -30 69 -12 104 -14 84 -6 -48 20 -24 45 50 52 l75 8 -80 4 c-53 2 -71 9 -53 21 19 12 12 17 -25 17 -29 0 -52 -8 -52 -17z"/> <path d="M7120 718 c0 -17 9 -39 21 -51 34 -34 -33 -79 -71 -47 -17 14 -30 16 -30 5 0 -59 111 -45 131 17 6 21 20 38 30 38 11 0 19 10 19 22 0 12 -12 18 -28 12 -15 -6 -37 -1 -50 12 -16 16 -22 14 -22 -8z"/> <path d="M975 646 c-39 -10 -51 -154 -15 -176 26 -16 26 -236 -1 -263 -12 -12 -14 -38 -4 -65 15 -41 20 -42 44 -14 21 27 21 32 -1 32 -20 0 -21 5 -2 24 13 13 24 58 24 99 0 41 9 80 20 87 11 7 19 37 18 66 0 30 -6 43 -11 29 -16 -39 -47 -29 -47 15 0 43 4 43 175 0 36 -9 65 -13 65 -9 0 20 -141 71 -161 58 -25 -15 -58 24 -59 69 0 21 10 20 40 -8 39 -35 40 -35 40 7 0 24 -8 43 -18 43 -10 0 -31 3 -45 8 -15 4 -43 3 -62 -2z"/> <path d="M6704 598 c-5 -58 106 -186 142 -165 10 7 2 22 -18 33 -50 28 -107 97 -107 131 -1 42 39 17 76 -48 18 -32 35 -63 38 -67 3 -5 10 -4 16 2 14 15 -33 116 -54 116 -9 0 -17 12 -17 26 0 53 -72 27 -76 -28z"/> <path d="M7574 626 c22 -57 123 -151 150 -140 17 7 13 11 -9 12 -19 1 -35 12 -35 24 0 13 17 18 40 10 22 -6 58 -18 80 -24 22 -7 40 -4 40 7 0 22 -137 55 -154 37 -14 -13 -55 28 -71 73 -8 19 -23 35 -34 35 -11 0 -14 -15 -7 -34z"/> <path d="M1120 582 c0 -10 40 -35 89 -55 55 -23 79 -42 65 -51 -14 -9 0 -16 32 -16 61 0 26 63 -40 73 -15 2 -50 18 -76 35 -56 37 -70 39 -70 14z"/> <path d="M7440 578 c0 -75 88 -137 133 -92 23 23 50 16 35 -9 -9 -14 -5 -18 9 -9 33 20 29 52 -7 52 -16 0 -30 14 -30 30 0 39 -32 39 -48 -1 -6 -18 -3 -26 8 -19 11 7 20 -1 20 -17 0 -43 -69 -26 -77 19 -9 49 -43 86 -43 46z"/> <path d="M7245 551 c-16 -18 -17 -33 -5 -41 11 -7 26 1 32 18 9 23 22 26 46 13 21 -11 46 -11 63 0 25 16 25 18 -1 19 -16 0 -48 5 -70 10 -22 5 -51 -3 -65 -19z"/> <path d="M7280 472 c0 -15 -13 -38 -30 -52 -16 -14 -30 -17 -30 -6 0 61 -311 69 -349 8 -19 -31 28 -67 92 -70 75 -2 105 36 33 42 -43 4 -43 3 4 -13 l50 -17 -55 -2 c-30 -1 -55 7 -55 18 0 11 -16 21 -35 22 -19 2 1 10 45 18 45 9 88 8 99 -2 10 -10 33 -17 50 -17 18 1 10 11 -19 23 -38 17 -42 24 -17 30 113 28 215 -142 124 -209 -19 -13 -28 -31 -21 -38 26 -26 94 79 94 146 0 75 33 91 46 22 5 -25 6 -17 3 18 -3 34 4 72 17 85 16 16 13 22 -12 22 -19 0 -34 -12 -34 -28z"/> <path d="M7443 339 c-43 -26 -62 -53 -61 -84 2 -41 4 -41 24 11 22 55 93 90 133 65 11 -7 21 -5 21 6 0 38 -56 39 -117 2z"/> <path d="M7594 339 c-6 -21 -2 -34 8 -28 11 7 37 -9 58 -34 21 -26 39 -39 39 -30 2 47 -95 132 -105 92z"/> <path d="M7277 245 c-2 -19 -3 -46 -3 -58 1 -14 -13 -19 -31 -12 -18 6 -26 4 -18 -5 8 -9 3 -31 -13 -48 -15 -18 -33 -54 -41 -82 -11 -42 -9 -44 9 -15 12 19 44 59 71 88 28 30 49 77 49 110 0 62 -18 79 -23 22z"/> <path d="M7600 249 c0 -36 101 -112 137 -102 29 7 28 9 -3 11 -20 1 -31 10 -25 21 6 10 -9 24 -34 32 -25 8 -52 24 -60 37 -10 15 -14 15 -15 1z"/> <path d="M7100 145 c1 -30 4 -31 22 -5 22 31 18 6 -14 -100 -7 -22 -4 -40 7 -40 22 0 50 136 33 163 -18 30 -48 18 -48 -18z"/> <path d="M7340 139 c0 -23 8 -36 18 -31 9 6 24 -18 32 -53 11 -45 18 -54 24 -30 10 39 -34 155 -59 155 -8 0 -15 -19 -15 -41z"/> <path d="M3317 71 c-5 -6 -58 -23 -118 -39 l-109 -29 185 -2 c102 0 185 6 185 15 0 45 -110 87 -143 55z"/> </g> </svg> 